<?xml version="1.0" standalone="no"?>
<!DOCTYPE svg PUBLIC "-//W3C//DTD SVG 20010904//EN"
 "http://www.w3.org/TR/2001/REC-SVG-20010904/DTD/svg10.dtd">
<svg version="1.0" xmlns="http://www.w3.org/2000/svg"
 width="16.000000pt" height="16.000000pt" viewBox="0 0 16.000000 16.000000"
 preserveAspectRatio="xMidYMid meet">
<metadata>
Created by potrace 1.11, written by Peter Selinger 2001-2013
</metadata>
<g transform="translate(0.000000,16.000000) scale(0.006154,-0.006154)"
fill="#000000" stroke="none">
<path d="M110 1310 l0 -790 180 0 180 0 1 98 c0 53 1 271 2 484 1 214 5 388 9
388 3 0 10 -28 14 -62 4 -35 8 -65 9 -68 1 -3 5 -34 9 -70 5 -36 10 -72 11
-80 2 -8 6 -37 9 -65 4 -27 13 -93 21 -145 8 -52 16 -113 19 -135 3 -22 15
-104 26 -183 11 -78 20 -147 20 -152 0 -6 51 -10 129 -10 l129 0 7 53 c4 28 8
63 10 77 5 38 18 133 20 155 2 11 6 45 10 75 3 30 10 82 15 115 5 33 12 83 15
110 3 28 7 60 9 72 3 12 8 53 11 90 4 37 9 70 10 73 3 5 17 124 18 148 0 6 4
12 7 12 4 0 8 -46 8 -102 0 -57 1 -277 1 -490 l1 -388 180 0 180 0 0 73 c1 88
1 1453 0 1485 l0 22 -264 0 -264 0 -6 -27 c-3 -16 -8 -50 -12 -78 -3 -27 -8
-57 -9 -65 -2 -9 -6 -43 -10 -75 -4 -33 -9 -71 -11 -85 -2 -14 -6 -50 -10 -80
-3 -30 -8 -64 -10 -75 -2 -11 -9 -66 -16 -123 -6 -56 -15 -97 -19 -90 -4 7
-12 51 -18 98 -6 47 -13 96 -15 110 -3 14 -7 41 -10 60 -3 19 -14 100 -26 180
-12 80 -24 163 -27 185 -3 22 -6 46 -6 53 0 9 -61 12 -269 12 l-268 0 0 -790z
m907 208 c-3 -7 -5 -2 -5 12 0 14 2 19 5 13 2 -7 2 -19 0 -25z"/>
<path d="M1541 1311 l0 -792 333 1 c392 2 447 9 527 71 47 37 77 108 86 201 4
40 7 278 7 529 -1 503 -5 548 -58 628 -17 25 -52 60 -78 78 -83 55 -154 65
-505 71 l-311 4 -1 -791z m499 504 c19 -10 31 -26 36 -47 7 -35 8 -859 0 -893
-2 -11 -5 -26 -5 -33 -1 -18 -61 -52 -92 -52 l-26 0 0 520 0 520 29 0 c16 0
42 -7 58 -15z"/>
</g>
</svg>
